<svg width="38" height="38" viewBox="0 0 38 38" fill="none" xmlns="http://www.w3.org/2000/svg">
<circle cx="19" cy="19" r="19" fill="#C1A1F0"/>
<path d="M11.8892 26.9454H7.21313L9.42681 12.8425C9.75015 10.8527 11.143 9.7832 13.1577 9.7832C14.8988 9.7832 16.3663 10.5294 16.8389 12.3948L19.1272 21.2993L21.3906 12.4695C21.8632 10.604 23.3804 9.7832 25.1712 9.7832C27.1362 9.7832 28.4793 10.8776 28.7778 12.9172L30.7676 26.9454H26.1164L24.7733 15.106L22.1119 24.8063C21.6891 26.2987 20.52 27.02 19.1272 27.02C17.7592 27.02 16.5155 26.3236 16.1424 24.9058L13.5059 15.0811L11.8892 26.9454Z" fill="black"/>
</svg>
