<svg width="900" height="159" viewBox="0 0 900 159" fill="none" xmlns="http://www.w3.org/2000/svg">
<path d="M32.5794 151.01H0L20.0319 23.554C22.6735 8.14484 33.4599 0 48.4288 0C61.6367 0 72.8633 5.72341 76.3854 20.0319L101.26 112.487C101.26 113.147 101.48 113.147 101.48 113.147C101.7 113.147 101.921 113.147 101.921 112.487L126.355 20.6923C130.097 6.38381 141.544 0 154.972 0C169.721 0 180.287 8.36499 182.489 24.2144L200.759 151.01H168.18L153.871 34.7807C153.871 33.68 153.651 33.0196 152.771 33.0196C152.11 33.0196 151.67 33.4599 151.45 34.3404L123.934 132.519C120.852 143.745 112.047 149.249 101.48 149.249C91.3543 149.249 81.8887 143.966 79.2471 133.179L51.7308 34.3404C51.5106 33.2398 51.0704 33.0196 50.6301 33.0196C49.9697 33.0196 49.3093 33.4599 49.3093 34.5606L32.5794 151.01Z" fill="#DD9682"/>
<path d="M278.214 153.872C244.314 153.872 218.779 130.318 218.779 95.5368C218.779 64.0581 241.673 38.0827 275.353 38.0827C309.913 38.0827 329.945 63.6178 329.945 93.3355V102.581H248.937C251.138 117.11 262.365 126.795 277.994 126.795C289.881 126.795 299.787 121.072 304.85 110.946L328.845 123.053C319.379 142.645 301.328 153.872 278.214 153.872ZM250.258 85.1907H298.907C297.586 73.964 288.341 65.3789 275.133 65.3789C261.485 65.3789 252.459 74.1841 250.258 85.1907Z" fill="#DD9682"/>
<path d="M490.197 38.0827C525.638 38.0827 543.689 63.6178 543.689 93.9959V151.01H512.43V99.2791C512.43 82.5491 505.166 68.4607 487.996 68.4607C471.046 68.4607 463.781 82.329 463.781 98.8388V151.01H432.523V99.0589C432.523 82.329 425.259 68.4607 408.308 68.4607C390.918 68.4607 384.094 82.5491 384.094 99.0589V151.01H352.835V93.9959C352.835 63.6178 370.666 38.0827 405.887 38.0827C426.799 38.0827 441.988 47.3282 448.372 62.2971C455.196 47.3282 470.605 38.0827 490.197 38.0827Z" fill="#DD9682"/>
<path d="M734.713 151.01H703.454V88.4926C703.454 60.536 719.303 39.1833 751.663 39.1833C758.707 39.1833 766.411 40.5041 771.915 42.9255V73.3036C766.632 70.2218 760.248 68.6808 754.524 68.6808C742.197 68.6808 734.713 76.6056 734.713 89.5933V151.01Z" fill="#DD9682"/>
<path d="M835.722 153.872C804.023 153.872 781.79 127.896 781.79 96.1972C781.79 64.9386 807.325 38.743 840.785 38.743C874.905 38.743 900 63.3977 900 96.1972V151.01H870.282V138.242C862.578 147.928 850.691 153.872 835.722 153.872ZM840.785 124.594C856.854 124.594 868.741 111.827 868.741 96.4173C868.741 81.0082 856.854 68.2406 840.785 68.2406C824.715 68.2406 813.048 81.0082 813.048 96.4173C813.048 111.827 824.715 124.594 840.785 124.594Z" fill="#DD9682"/>
<path d="M582.051 38.9816H575.172C570.106 38.9816 566 43.0881 566 48.1537V55.0328M582.051 153.633H575.172C570.106 153.633 566 149.527 566 144.461V137.582" stroke="#DD9682" stroke-width="9" stroke-linecap="square" stroke-linejoin="round"/>
<path d="M623.907 145.436C595.601 145.436 574 123.325 574 96.3421C574 69.5467 595.788 47.4358 623.907 47.4358C652.399 47.4358 674 69.7341 674 96.3421C674 123.325 652.212 145.436 623.907 145.436ZM623.907 120.514C637.501 120.514 647.557 109.646 647.557 96.5295C647.557 83.4128 637.501 72.5448 623.907 72.5448C610.313 72.5448 600.443 83.4128 600.443 96.5295C600.443 109.646 610.313 120.514 623.907 120.514Z" fill="#DD9682"/>
<path d="M666 38.9816H672.879C677.945 38.9816 682.051 43.0881 682.051 48.1537V55.0328M666 153.633H672.879C677.945 153.633 682.051 149.527 682.051 144.461V137.582" stroke="#DD9682" stroke-width="9" stroke-linecap="square" stroke-linejoin="round"/>
</svg>
