<svg width="38" height="39" viewBox="0 0 38 39" fill="none" xmlns="http://www.w3.org/2000/svg">
<g id="Group 1">
<circle id="Ellipse 1" cx="19" cy="19.5" r="19" fill="#DD9682"/>
<path id="M" d="M11.889 27.4454H7.21289L9.42656 13.3425C9.74991 11.3527 11.1428 10.2832 13.1575 10.2832C14.8986 10.2832 16.3661 11.0294 16.8386 12.8948L19.1269 21.7993L21.3903 12.9695C21.8629 11.104 23.3802 10.2832 25.171 10.2832C27.1359 10.2832 28.4791 11.3776 28.7775 13.4172L30.7674 27.4454H26.1162L24.773 15.606L22.1117 25.3063C21.6888 26.7987 20.5198 27.52 19.1269 27.52C17.7589 27.52 16.5153 26.8236 16.1422 25.4058L13.5057 15.5811L11.889 27.4454Z" fill="#2D5148"/>
</g>
</svg>
