<svg width="48" height="48" viewBox="0 0 48 48" fill="none" xmlns="http://www.w3.org/2000/svg">
<rect width="48" height="48" rx="24" fill="#DD9682"/>
<path fill-rule="evenodd" clip-rule="evenodd" d="M32.4004 24C32.4004 24.497 31.9974 24.9 31.5004 24.9L18.7349 24.9L23.7242 29.6512C24.0825 29.9958 24.0937 30.5655 23.7491 30.9238C23.4046 31.2821 22.8349 31.2933 22.4766 30.9487L15.8766 24.6487C15.7001 24.4791 15.6004 24.2448 15.6004 24C15.6004 23.7552 15.7001 23.5209 15.8766 23.3512L22.4766 17.0512C22.8349 16.7067 23.4046 16.7179 23.7491 17.0762C24.0937 17.4345 24.0825 18.0042 23.7242 18.3487L18.7349 23.1L31.5004 23.1C31.9974 23.1 32.4004 23.5029 32.4004 24Z" fill="white"/>
</svg>
